Coordinates
version=1
nRows=9
nColumns=63
inDegrees=yes

Units are S.I. units (second, meters, Newtons, ...)
If the header above contains a line with 'inDegrees', this indicates whether rotational values are in degrees (yes) or radians (no).

endheader
time	pelvis_tilt	pelvis_list	pelvis_rotation	pelvis_tx	pelvis_ty	pelvis_tz	hip_flexion_r	hip_adduction_r	hip_rotation_r	knee_angle_r	knee_angle_r_beta	ankle_angle_r	subtalar_angle_r	mtp_angle_r	hip_flexion_l	hip_adduction_l	hip_rotation_l	knee_angle_l	knee_angle_l_beta	ankle_angle_l	subtalar_angle_l	mtp_angle_l	L5_S1_Flex_Ext	L5_S1_Lat_Bending	L5_S1_axial_rotation	L4_L5_Flex_Ext	L4_L5_Lat_Bending	L4_L5_axial_rotation	L3_L4_Flex_Ext	L3_L4_Lat_Bending	L3_L4_axial_rotation	L2_L3_Flex_Ext	L2_L3_Lat_Bending	L2_L3_axial_rotation	L1_L2_Flex_Ext	L1_L2_Lat_Bending	L1_L2_axial_rotation	L1_T12_Flex_Ext	L1_T12_Lat_Bending	L1_T12_axial_rotation	Abs_r3	Abs_r2	Abs_r1	Abs_t1	Abs_t2	neck_flexion	neck_bending	neck_rotation	arm_flex_r	arm_add_r	arm_rot_r	elbow_flex_r	pro_sup_r	wrist_flex_r	wrist_dev_r	arm_flex_l	arm_add_l	arm_rot_l	elbow_flex_l	pro_sup_l	wrist_flex_l	wrist_dev_l
      0.95000000	     -3.10349896	    -16.62269160	     92.21179549	      0.43211081	      0.66582820	      1.03970799	     26.34072264	     -2.56425908	      0.82123928	     22.05166816	      0.38487421	     32.62532468	     -3.80914341	      0.00000000	     20.52781951	      1.21840374	    -12.96606116	     14.26273407	      0.24893167	     34.42898436	     13.68832766	      0.00000000	     -0.26722506	     -0.43268462	      1.24096452	     -0.49626365	     -0.57547054	      1.31852480	     -0.43902405	     -1.05202937	      1.31852480	     -0.30541152	     -1.05202937	      1.08584396	     -0.24814519	     -0.88233047	      1.00828367	     -0.15269240	     -0.67022847	      0.93072339	     -1.90876186	     -4.89461490	      6.90187238	      0.00000000	      0.00000000	     17.94368794	     -2.34627250	     -3.95399131	     -8.08441486	    -17.28571929	      1.00171652	    114.54248640	     85.66521987	     -7.82791778	     22.15998335	    -11.75606851	    -22.80297592	      2.85931295	    111.90339754	     88.65017071	    -10.80022739	     11.44347615
      0.97500000	     -4.14452195	    -17.57045162	     92.01068876	      0.43305125	      0.66369875	      1.03936217	     28.59916292	     -3.15879702	      1.86817685	     24.09146466	      0.42047538	     33.10286256	     -5.44194797	      0.00000000	     20.77441170	      2.36608878	    -13.18890756	     13.21248269	      0.23060133	     33.81902583	     13.59894689	      0.00000000	     -0.28094523	     -0.64163368	      0.92374370	     -0.52174338	     -0.85337279	      0.98147769	     -0.46156492	     -1.56006812	      0.98147769	     -0.32109230	     -1.56006812	      0.80827574	     -0.26088574	     -1.30841939	      0.75054176	     -0.16053210	     -0.99389056	      0.69280778	     -2.00676367	     -7.25828847	      5.13758536	      0.00000000	      0.00000000	     17.62318268	      0.06632607	     -5.30063636	     -3.68209786	    -17.63549640	      2.23204045	    123.31255767	     86.32524458	     -6.57637930	     18.07583340	    -10.28354227	    -22.11769195	      1.57249765	    100.94469151	     87.65085740	    -10.24969464	     15.91703335
      1.00000000	     -5.05194467	    -18.23231959	     91.94294446	      0.43384726	      0.66201432	      1.03943155	     30.48167081	     -3.72458133	      2.50727078	     26.02547629	      0.45423025	     33.59455984	     -6.46091961	      0.00000000	     20.93019273	      3.39143900	    -13.33740460	     12.33647427	      0.21531209	     33.27030184	     13.49264541	      0.00000000	     -0.30818417	     -0.82387472	      0.57220157	     -0.57232883	     -1.09575337	      0.60796417	     -0.50631578	     -2.00316898	      0.60796417	     -0.35222369	     -2.00316898	      0.50067638	     -0.28617982	     -1.68004532	      0.46491378	     -0.17609644	     -1.27618193	      0.42915118	     -2.20132874	     -9.31983556	      3.18241349	      0.00000000	      0.00000000	     16.91422012	      2.57583329	     -6.04717403	      1.32817822	    -17.24620933	      3.31388833	    129.02869331	     87.35911953	     -6.82355057	     14.55037252	     -7.30028597	    -21.45184936	      0.97083065	     90.56215598	     85.93620127	    -10.72391378	     18.86645058
      1.02500000	     -5.77458946	    -18.84468663	     91.62730665	      0.43502071	      0.66059668	      1.03950353	     31.96509947	     -3.98904450	      3.52826584	     27.15628630	      0.47396661	     33.94876084	     -7.35819305	      0.00000000	     21.43518155	      4.03628184	    -13.92087268	     12.11048295	      0.21136780	     33.02902276	     13.42837248	      0.00000000	     -0.31205077	     -0.97023333	      0.37955204	     -0.57950948	     -1.29041033	      0.40327404	     -0.51266820	     -2.35902532	      0.40327404	     -0.35664282	     -2.35902532	      0.33210803	     -0.28977034	     -1.97849981	      0.30838603	     -0.17830581	     -1.50289143	      0.28466403	     -2.22894742	    -10.97547350	      2.11095458	      0.00000000	      0.00000000	     16.06763765	      4.41794953	     -7.03964756	      3.72767451	    -16.22159330	      3.70962272	    132.15973758	     88.11854771	     -8.22460925	     11.59385514	     -4.86868791	    -21.19977667	      0.81142257	     84.88964949	     84.73111717	    -11.32683417	     21.16414531
      1.05000000	     -5.40423004	    -19.43017367	     91.67791582	      0.43399784	      0.65907159	      1.03955445	     32.95704222	     -3.62144164	      3.64178908	     27.52738078	      0.48044343	     34.29342377	     -7.67271066	      0.00000000	     22.35840148	      3.69625803	    -14.40460660	     12.64661706	      0.22072511	     33.48064231	     13.46052441	      0.00000000	     -0.31079987	     -0.90725314	      0.52846925	     -0.57718643	     -1.20664668	      0.56149858	     -0.51061310	     -2.20589529	      0.56149858	     -0.35521317	     -2.20589529	      0.46241060	     -0.28860876	     -1.85007061	      0.42938127	     -0.17759104	     -1.40533512	      0.39635194	     -2.22001237	    -10.26302899	      2.93918744	      0.00000000	      0.00000000	     15.70368999	      3.86194550	     -7.84348662	      0.34969219	    -15.78955591	      2.11794011	    133.56273128	     88.17396446	     -9.11690179	     10.40502661	     -3.68386266	    -20.64052819	      2.30568024	     86.38627651	     85.27436508	    -11.84544946	     21.52602018
      1.07500000	     -3.81309184	    -19.80889041	     92.49262792	      0.42984284	      0.65776587	      1.04012579	     33.26103764	     -2.84309162	      2.16490368	     27.21042419	      0.47491149	     34.69929139	     -6.94725413	      0.00000000	     23.41572581	      2.50680551	    -13.96104757	     13.63276822	      0.23793669	     34.26479939	     13.33103081	      0.00000000	     -0.31696998	     -0.60910390	      0.78975167	     -0.58864495	     -0.81010819	      0.83911115	     -0.52074998	     -1.48097523	      0.83911115	     -0.36226499	     -1.48097523	      0.69103271	     -0.29433832	     -1.24208468	      0.64167323	     -0.18111665	     -0.94350195	      0.59231375	     -2.26408486	     -6.89030517	      4.39236186	      0.00000000	      0.00000000	     15.68073545	      1.42183077	     -7.10823807	     -7.07503922	    -16.48363816	     -0.46415704	    131.52694282	     88.05437958	     -9.52042469	      9.47751067	     -4.06236397	    -19.56332392	      4.58432509	     94.44909374	     86.97309779	    -11.90862413	     18.65061820
      1.10000000	     -1.80778672	    -19.71285548	     93.42878842	      0.42541497	      0.65795132	      1.04063671	     32.76053838	     -1.81289920	      0.14106739	     26.31538829	      0.45929017	     34.89655058	     -5.71799958	      0.00000000	     24.12270856	      0.96900871	    -12.93966041	     14.72380485	      0.25697887	     34.89184460	     12.87588067	      0.00000000	     -0.34406401	     -0.24413745	      0.88610761	     -0.63896128	     -0.32470281	      0.94148934	     -0.56526277	     -0.59359580	      0.94148934	     -0.39323076	     -0.59359580	      0.77534416	     -0.31949784	     -0.49784509	      0.71996244	     -0.19659818	     -0.37816891	      0.66458071	     -2.45761484	     -2.76173166	      4.92826472	      0.00000000	      0.00000000	     15.36755839	     -0.73144290	     -4.97219065	    -13.10202380	    -17.78494600	     -1.69047006	    124.27823001	     87.81123755	    -11.10871504	      8.35441598	     -5.30641649	    -18.28295728	      6.05496613	    105.12898812	     88.06973176	    -12.04367315	     12.86246616
      1.12500000	     -0.12105047	    -19.53608152	     93.91353010	      0.42259670	      0.65905968	      1.04004652	     32.02176389	     -0.80387008	     -1.66887749	     25.13138416	      0.43862540	     35.06899763	     -4.02170177	      0.00000000	     24.55586230	     -0.41377897	    -11.95271119	     15.50607541	      0.27063207	     35.12450525	     12.17002858	      0.00000000	     -0.34645040	      0.04324276	      0.92768362	     -0.64339304	      0.05751287	      0.98566384	     -0.56918336	      0.10514044	      0.98566384	     -0.39595816	      0.10514044	      0.81172317	     -0.32171384	      0.08818063	      0.75374294	     -0.19796176	      0.06698303	      0.69576271	     -2.47466056	      0.48917072	      5.15949798	      0.00000000	      0.00000000	     14.71868344	     -1.66357066	     -3.53129044	    -15.39638429	    -19.11833047	     -1.13253169	    113.73628712	     87.43262196	    -14.69406282	      9.69712531	     -6.16866318	    -17.01092566	      7.21070476	    115.40319915	     88.50459934	    -12.23947200	      8.85942033
      1.15000000	      1.02079082	    -19.40038557	     93.64676203	      0.42172873	      0.66001546	      1.03899210	     31.24916140	      0.23660043	     -2.29349293	     23.77366138	      0.41492867	     34.94564095	     -2.91621202	      0.00000000	     24.80735259	     -1.56074981	    -11.49176554	     16.07141147	      0.28049905	     35.22364416	     11.49006947	      0.00000000	     -0.32871105	      0.22367478	      1.13191623	     -0.61044930	      0.29748746	      1.20266099	     -0.54003939	      0.54384286	      1.20266099	     -0.37568386	      0.54384286	      0.99042670	     -0.30524109	      0.45611761	      0.91968193	     -0.18782550	      0.34647223	      0.84893717	     -2.34795019	      2.53025385	      6.29537847	      0.00000000	      0.00000000	     14.28053562	     -1.97324666	     -4.43199366	    -14.70642029	    -19.90565912	     -0.22005539	    102.10095245	     86.60457930	    -16.66954263	     13.39601530	     -6.07375272	    -16.08468729	      8.99252952	    124.08372570	     88.58388416	    -11.74059391	      7.89597222
